# xmcd
#
# Track frame offsets:
#	150
#	15440
#	30291
#	47456
#	63667
#	75971
#	91059
#	114415
#	131280
#	145690
#	161662
#
# Disc length: 2287 seconds
#
# Revision: 2
# Processed by: cddbd v1.5.1PL0 Copyright (c) Steve Scherf et al.
# Submitted via: audiograbber 1.83.01
#
DISCID=7208ed0b
DTITLE=Trisha Yearwood - Jasper County
DYEAR=2005
DGENRE=Country
TTITLE0=Who Invented The Wheel
TTITLE1=Pistol
TTITLE2=Trying To Love You
TTITLE3=Rivers Of You
TTITLE4=Baby Don't You Let Go
TTITLE5=Standing Out In A Crowd
TTITLE6=Georgia Rain
TTITLE7=Sweet Love
TTITLE8=Try Me
TTITLE9=Gimme The Good Stuff
TTITLE10=It's Alright
EXTD=
EXTT0=
EXTT1=
EXTT2=
EXTT3=
EXTT4=
EXTT5=
EXTT6=
EXTT7=
EXTT8=
EXTT9=
EXTT10=
PLAYORDER=
